<?xml version="1.0" encoding="utf-8"?>
<!-- Generator: Adobe Illustrator 15.1.0, SVG Export Plug-In . SVG Version: 6.00 Build 0)  -->
<!DOCTYPE svg PUBLIC "-//W3C//DTD SVG 1.1//EN" "http://www.w3.org/Graphics/SVG/1.1/DTD/svg11.dtd">
<svg version="1.1" id="Layer_1" xmlns="http://www.w3.org/2000/svg" xmlns:xlink="http://www.w3.org/1999/xlink" x="0px" y="0px"
	 width="612px" height="792px" viewBox="0 0 612 792" enable-background="new 0 0 612 792" xml:space="preserve">
<g>
	<path fill-rule="evenodd" clip-rule="evenodd" d="M562,304c0,8.667,0,17.333,0,26c-4.2,30.8-15.012,58.239-33,80
		c-5.697,6.893-13.653,16.533-19,18c-10.057,2.759-26.333,0-39,0c-26.938,0-46.857,0-76,0c-11.996,0-28.742,2.929-38,0
		c-8.716-2.757-18.019-22.598-25-32c-24.261-32.671-50.602-64.326-72-96c-25.014,21.018-49.619,46.619-75,72
		c-6.946,6.946-17.623,21.977-25,24c-11.965,3.281-29.074,0-43,0c-14.032,0-27.531,0-42,0c-15.529-19.137-22.993-46.341-25-79
		c0-1,0-2,0-3c5.673-74.966,54.887-134.188,128-141c59.371-5.531,100.25,21.688,129,55c30.077-43.238,94.725-68.425,156-48
		C515.86,197.62,556.013,244.184,562,304z"/>
	<path fill-rule="evenodd" clip-rule="evenodd" d="M339,460c46,0,92,0,138,0c2.401,2.947-4.721,6.721-8,10
		c-46.411,46.411-93.304,95.304-141,143c-3.723,3.723-18.278,21.884-21,22c-4.275,0.183-20.257-20.257-26-26
		c-58.889-58.89-123.378-121.899-178-181c26.76-3.975,51.622,5.393,74,0c11.811-2.846,29.668-27.668,40-38
		c16.64-16.64,31.145-31.26,42-40C286.292,386.042,311.015,424.652,339,460z"/>
</g>
</svg>
